<svg xmlns="http://www.w3.org/2000/svg" xmlns:xlink="http://www.w3.org/1999/xlink" width="300" height="227" viewBox="0 0 300 227">
    <defs>
        <linearGradient id="a" x1="29.522%" x2="78.948%" y1="24.971%" y2="82.542%">
            <stop offset="0%" stop-color="#ADD2EF"/>
            <stop offset="100%" stop-color="#C4CDFD"/>
        </linearGradient>
        <linearGradient id="b" x1="0%" y1="100%" y2="100%">
            <stop offset="0%" stop-color="#6664F5"/>
            <stop offset="100%" stop-color="#11C893"/>
        </linearGradient>
        <circle id="c" cx="67" cy="67" r="67"/>
        <linearGradient id="d" x1="0%" y1="100%" y2="100%">
            <stop offset="0%" stop-color="#6664F5"/>
            <stop offset="100%" stop-color="#11C893"/>
        </linearGradient>
        <linearGradient id="f" x1="0%" y1="100%" y2="100%">
            <stop offset="0%" stop-color="#6664F5"/>
            <stop offset="100%" stop-color="#11C893"/>
        </linearGradient>
        <linearGradient id="g" x1="0%" y1="100%" y2="100%">
            <stop offset="0%" stop-color="#6664F5"/>
            <stop offset="100%" stop-color="#11C893"/>
        </linearGradient>
        <linearGradient id="h" x1="0%" y1="100%" y2="100%">
            <stop offset="0%" stop-color="#6664F5"/>
            <stop offset="100%" stop-color="#11C893"/>
        </linearGradient>
        <linearGradient id="i" x1="0%" y1="100%" y2="100%">
            <stop offset="0%" stop-color="#6664F5"/>
            <stop offset="100%" stop-color="#11C893"/>
        </linearGradient>
    </defs>
    <g fill="none" fill-rule="evenodd">
        <path fill="url(#a)" fill-rule="nonzero" d="M288 0c6.627 0 12 5.373 12 12v203c0 6.627-5.373 12-12 12H12c-6.627 0-12-5.373-12-12V12C0 5.373 5.373 0 12 0h276zm0 1H12C6.021 1 1.157 5.77 1.004 11.712L1 12v203c0 5.979 4.77 10.843 10.712 10.996L12 226h276c5.979 0 10.843-4.77 10.996-10.712L299 215V12c0-5.979-4.77-10.843-10.712-10.996L288 1z"/>
        <g fill="url(#b)" opacity=".12" transform="translate(186 81)">
            <rect width="6" height="6" rx="2"/>
            <rect width="6" height="6" y="22" rx="2"/>
            <rect width="6" height="6" y="44" rx="2"/>
            <rect width="6" height="6" y="66" rx="2"/>
            <rect width="6" height="6" y="88" rx="2"/>
        </g>
        <g transform="translate(32 61)">
            <mask id="e" fill="#fff">
                <use xlink:href="#c"/>
            </mask>
            <path fill="url(#d)" fill-rule="nonzero" d="M94.62 112.243l7.463 11.154c-10.522 6.528-22.688 10.053-35.358 10.053a67.227 67.227 0 0 1-17.408-2.28 66.716 66.716 0 0 1-9.637-3.391l-.71-.32v.002l-.198-.091v-.001l5.728-12.368A52.797 52.797 0 0 0 67 120c10.12 0 19.577-2.836 27.62-7.757zm-84.456-82.15l12.3 8.162C17.11 46.535 14 56.405 14 67c0 20.515 11.656 38.308 28.707 47.117l-5.74 12.394C14.54 115.416-.122 92.615-.42 67.097l-.051-7.407v-1.005c.002-1.04.014-1.827.04-2.426L-.4 55.7l.799.059.095-.583a66.8 66.8 0 0 1 9.67-25.083zm106.619 55.133l12.949 4.34c-4.852 13.136-13.728 24.437-25.292 32.299l-.37.248v.001l-.092.061-.128.086-.001-.001-.084.055-7.457-11.149c9.32-6.196 16.565-15.264 20.475-25.94zm14.744-36.576l.188.698c.491 1.889.9 3.802 1.226 5.735.62 3.685.934 7.433.934 11.217a67.084 67.084 0 0 1-3.478 21.38l-12.962-4.345A52.961 52.961 0 0 0 120 67c0-5.034-.702-9.903-2.013-14.517l13.54-3.833zM66.725-.85a67.132 67.132 0 0 1 19.927 3.009c21.203 6.58 37.868 23.352 44.323 44.569l-13.57 3.842C110.488 29.342 90.535 14 67 14c-17.959 0-33.831 8.932-43.417 22.596l-12.314-8.17.136-.199.17-.246a67.089 67.089 0 0 1 1.937-2.643C26.142 8.952 45.632-.85 66.725-.85z" mask="url(#e)" opacity=".12"/>
        </g>
        <rect width="147" height="18" x="32" y="22" fill="url(#f)" opacity=".12" rx="6"/>
        <rect width="69" height="8" x="198" y="80" fill="url(#g)" opacity=".12" rx="4"/>
        <rect width="64" height="8" x="198" y="102" fill="url(#h)" opacity=".12" rx="4"/>
        <rect width="69" height="8" x="198" y="124" fill="url(#g)" opacity=".12" rx="4"/>
        <rect width="64" height="8" x="198" y="146" fill="url(#h)" opacity=".12" rx="4"/>
        <rect width="52" height="8" x="198" y="168" fill="url(#i)" opacity=".12" rx="4"/>
    </g>
</svg>
